<?xml version="1.0" encoding="UTF-8"?>
<svg id="Layer_1" data-name="Layer 1" xmlns="http://www.w3.org/2000/svg" xmlns:xlink="http://www.w3.org/1999/xlink" viewBox="0 0 338.34 441">
  <defs>
    <style>
      .cls-1 {
        fill: #c6d5db;
      }

      .cls-1, .cls-2 {
        stroke-width: 0px;
      }

      .cls-3 {
        fill: #fff;
        stroke: url(#linear-gradient);
        stroke-width: 4px;
      }

      .cls-3, .cls-4 {
        stroke-miterlimit: 10;
      }

      .cls-4 {
        fill: none;
        stroke: #638fa5;
        stroke-linecap: round;
        stroke-width: 7px;
      }

      .cls-2 {
        fill: #638fa5;
      }
    </style>
    <linearGradient id="linear-gradient" x1="7.54" y1="24.83" x2="342.12" y2="423.57" gradientUnits="userSpaceOnUse">
      <stop offset="0" stop-color="#fff"/>
      <stop offset=".39" stop-color="#c4d4dd"/>
      <stop offset="1" stop-color="#638fa5"/>
    </linearGradient>
  </defs>
  <rect class="cls-2" width="330.09" height="439" rx="24.66" ry="24.66"/>
  <rect class="cls-3" x="13.32" y="9.39" width="323.03" height="429.61" rx="24.66" ry="24.66"/>
  <rect class="cls-1" x="47.11" y="74.12" width="48.03" height="48.03" rx="6.58" ry="6.58"/>
  <rect class="cls-1" x="47.11" y="307.01" width="48.03" height="48.03" rx="6.58" ry="6.58"/>
  <rect class="cls-1" x="47.11" y="229.38" width="48.03" height="48.03" rx="6.58" ry="6.58"/>
  <rect class="cls-1" x="47.11" y="151.75" width="48.03" height="48.03" rx="6.58" ry="6.58"/>
  <polygon class="cls-2" points="53.03 84.2 71.64 114.01 137.24 40.2 73.53 94.11 53.03 84.2"/>
  <polygon class="cls-2" points="53.03 162.78 71.64 192.59 137.24 118.78 73.53 172.69 53.03 162.78"/>
  <path class="cls-4" d="m119.98,102.68c12.93-20.36,25.53-14.25,41.48-1.19,23.87,19.56,46.31-.34,46.31-.34,0,0,20.29-19.2,34.58-.55,13.92,18.18,46.81,16.15,55.7-4.3"/>
  <path class="cls-4" d="m119.98,177.18c12.93-20.36,25.53-14.25,41.48-1.19,23.87,19.56,46.31-.34,46.31-.34,0,0,20.29-19.2,34.58-.55,13.92,18.18,46.81,16.15,55.7-4.3"/>
  <path class="cls-4" d="m110.79,254.81c12.93-20.36,25.53-14.25,41.48-1.19,23.87,19.56,46.31-.34,46.31-.34,0,0,20.29-19.2,34.58-.55,13.92,18.18,46.81,16.15,55.7-4.3"/>
  <path class="cls-4" d="m110.79,332.44c12.93-20.36,25.53-14.25,41.48-1.19,23.87,19.56,46.31-.34,46.31-.34,0,0,20.29-19.2,34.58-.55,13.92,18.18,46.81,16.15,55.7-4.3"/>
</svg>